<svg xmlns="http://www.w3.org/2000/svg" width="38" height="49" viewBox="0 0 38 49">
    <g fill="#5A626D" fill-rule="evenodd">
        <path d="M24.535 36h-.534c-.68 0-1.234.678-1.234 1.357 0 0 0 3.974-.003 4.123-.097 2.527-2.234 4.52-4.763 4.52H7.536C4.906 46 3 44.111 3 41.482V22.518C3 20.165 4.681 18 7.035 18H18.5c2.353 0 4.5 2.165 4.5 4.518v3.5c0 .679.321.982 1.001.982h.534c.68 0 1.465-.303 1.465-.982v-3.5C26 18.51 22.508 15 18.501 15H7.536C3.253 15 0 18.735 0 23.018v18.465C0 45.766 3.252 49 7.535 49H18.5c4.008 0 7.5-3.01 7.5-7.018v-4.5c0-.679-.785-1.482-1.465-1.482"/>
        <path d="M30.5 0H19.535C15.527 0 12 3.01 12 7.018v3.5c0 .679.821 1.482 1.501 1.482h.534c.68 0 .965-.803.965-1.482v-3.5C15 4.665 17.183 3 19.536 3h11.465C33.354 3 35 4.665 35 7.018v18.964C35 28.611 33.129 31 30.5 31H20.035c-2.529 0-4.666-2.181-4.764-4.698l-.003-4.132c0-.68-.553-1.17-1.233-1.17h-.534c-.68 0-1.501.303-1.501.982v4.5C12 30.49 15.528 34 19.536 34h10.965C34.783 34 38 30.266 38 25.983V7.518C38 3.235 34.783 0 30.5 0"/>
    </g>
</svg>
