<svg xmlns="http://www.w3.org/2000/svg" width="54" height="55" viewBox="0 0 54 55">
    <path fill="#59626E" fill-rule="evenodd" d="M51.353 33.267c-.178.06-.242.07-.294.102-3.3 1.955-6.604 3.905-9.889 5.884-.194.117-.34.477-.342.725-.02 3.602-.014 7.204-.01 10.807 0 .185.018.369.032.613.132-.056.21-.081.28-.121 3.283-1.9 6.561-3.806 9.852-5.691.356-.204.375-.468.374-.803-.005-3.603-.003-7.205-.003-10.808v-.708zm-25.726-4.403c.015-.307.031-.475.031-.642.001-3.58-.009-7.158.012-10.737.003-.478-.17-.724-.566-.956-3.158-1.854-6.303-3.73-9.453-5.596-.159-.095-.329-.172-.536-.28-.016.143-.033.223-.033.302 0 3.795-.008 7.589.02 11.384.001.228.221.544.43.667 2.652 1.564 5.322 3.1 7.988 4.642.666.386 1.334.77 2.107 1.216zm12.811 22.582c.022-.185.04-.265.041-.345.002-3.731-.006-7.462.014-11.192.002-.405-.193-.57-.485-.741-3.19-1.886-6.376-3.778-9.564-5.666-.153-.091-.32-.158-.543-.267 0 3.98-.005 7.86.017 11.74.001.198.194.466.375.578.84.525 1.707 1.006 2.565 1.503l7.58 4.39zm-12.782-18.2c-.197.079-.28.1-.35.142-3.298 1.954-6.599 3.903-9.88 5.882-.192.115-.329.478-.33.727-.022 3.513-.014 7.027-.014 10.54v.903c.252-.133.42-.214.581-.307 3.15-1.824 6.293-3.656 9.451-5.465.406-.232.56-.486.556-.96-.023-3.146-.013-6.293-.014-9.44v-2.022zM2.26 33.219c0 3.906.01 7.699-.01 11.492-.004.472.142.727.551.96 3.18 1.818 6.342 3.662 9.512 5.495.141.082.293.145.493.242.014-.17.03-.27.03-.371.001-3.708-.007-7.416.01-11.125.001-.397-.183-.57-.48-.744-3.208-1.896-6.412-3.8-9.617-5.7-.125-.073-.259-.132-.489-.25zm36.22-22.564c-.17.066-.235.08-.289.113-3.318 1.967-6.639 3.928-9.94 5.919-.194.116-.332.48-.334.73-.02 3.666-.016 7.333-.015 10.999 0 .118.02.236.035.41.176-.082.292-.127.4-.19 3.243-1.88 6.482-3.765 9.733-5.631.336-.193.416-.421.415-.776-.01-3.364-.006-6.728-.006-10.092v-1.482zm11.7 20.566c-.285-.171-.466-.285-.65-.392-3.132-1.813-6.27-3.616-9.387-5.452-.405-.238-.675-.196-1.046.02-3.123 1.828-6.257 3.637-9.386 5.453-.178.103-.347.22-.57.365.156.109.253.188.36.25 3.26 1.937 6.515 3.878 9.79 5.789.19.112.577.067.786-.054 2.55-1.485 5.083-2.998 7.621-4.504l2.481-1.475zm-25.632-.01c-3.498-2.026-6.867-3.985-10.25-5.916-.18-.103-.54-.045-.74.069-3.214 1.842-6.417 3.704-9.62 5.563-.137.08-.262.179-.427.293.123.092.186.149.256.19 3.296 1.959 6.59 3.923 9.9 5.856.188.11.575.047.787-.077 2.92-1.707 5.824-3.44 8.732-5.165l1.362-.812zM37.333 8.657c-.112-.092-.157-.141-.212-.173-3.298-1.912-6.6-3.818-9.892-5.743-.333-.195-.572-.147-.877.03-3.202 1.866-6.41 3.719-9.615 5.578-.136.079-.256.186-.43.313 3.45 2.047 6.836 4.062 10.234 6.059.142.084.423.072.57-.015 3.398-1.997 6.786-4.011 10.222-6.05zM.014 38.612c0-2.438.017-4.876-.013-7.313-.006-.538.142-.841.625-1.117 3.893-2.225 7.762-4.49 11.651-6.718.438-.251.574-.53.572-1.021-.019-4.617-.004-9.234-.023-13.851-.002-.477.158-.721.564-.953 4.32-2.477 8.628-4.971 12.93-7.477.361-.21.62-.22.986-.005 4.302 2.507 8.612 5 12.93 7.478.424.243.593.499.591 1.006-.023 4.595-.004 9.19-.023 13.786-.002.51.137.8.595 1.062 3.891 2.227 7.762 4.49 11.65 6.722.42.24.603.488.601 1a1894.22 1894.22 0 0 0-.003 14.888c.001.466-.142.718-.556.956-4.34 2.484-8.667 4.99-12.989 7.506-.342.199-.58.204-.927 0-3.926-2.294-7.869-4.56-11.79-6.862-.442-.26-.743-.225-1.159.018-3.907 2.285-7.829 4.544-11.738 6.827-.359.209-.615.223-.987.007A1935.896 1935.896 0 0 0 .626 47.109c-.444-.254-.633-.522-.626-1.053.032-2.481.014-4.963.014-7.444z"/>
</svg>
