<svg xmlns="http://www.w3.org/2000/svg" width="59" height="52" viewBox="0 0 59 52">
    <path fill="#59626E" fill-rule="evenodd" d="M32.006 31.093c.002-1.684-1.17-2.857-2.844-2.85-1.697.006-2.852 1.156-2.854 2.84-.002 1.562 1.154 2.87 2.843 2.873 1.678.004 2.858-1.305 2.855-2.863M28.95 1.436c-1.7-.007-2.855 1.142-2.882 2.82-.028 1.75 1.24 2.81 2.75 2.872 1.59.067 2.973-1.118 2.955-2.81-.018-1.685-1.15-2.875-2.823-2.882M51.498 47c.015 1.698 1.17 2.825 2.873 2.802 1.66-.022 2.85-1.254 2.812-2.907-.04-1.662-1.265-2.836-2.92-2.81-1.462.021-2.927 1.3-2.765 2.915m-44.394.355c.11-1.588-1.374-2.854-2.857-2.827-1.652.03-2.853 1.251-2.831 2.901.023 1.667 1.224 2.833 2.902 2.816 1.684-.017 2.803-1.178 2.786-2.89m20.364-38.99c-.093.15-.183.285-.263.425-4.566 7.996-9.13 15.994-13.697 23.99a5111.435 5111.435 0 0 1-6.244 10.902c-.181.316-.326.586.17.76 5.777-3.795 11.56-7.6 17.355-11.387.308-.2.432-.354.297-.71-.78-2.064.538-4.542 2.747-5.299.48-.165.576-.384.57-.84-.063-5.652-.117-11.303-.146-16.955-.003-.562-.115-.902-.79-.886m2.374 18.44c.27.1.51.183.746.274 2.082.802 3.277 2.985 2.7 5.04-.134.48-.037.681.365.932 3.319 2.071 6.622 4.168 9.933 6.254 2.52 1.59 5.046 3.175 7.578 4.767.648-.513.033-.865-.15-1.175-5.45-9.195-10.92-18.378-16.386-27.562-1.395-2.343-2.793-4.685-4.175-7.002-.654.002-.787.314-.78.887.07 5.581.112 11.162.16 16.743.004.277.006.553.009.841M8.506 46.54l41.577-.368.258-.843-18.023-11.362c-2.226 1.87-3.72 1.878-6.298.073L8.214 45.712l.292.828m44.277-3.63c2.76-.59 4.96.551 5.653 2.895.62 2.098-.621 4.422-2.777 5.2-2.281.821-4.325-.354-5.617-3.243l-41.505.368c-.428 1.538-1.334 2.715-2.882 3.298-.951.36-1.912.331-2.86-.044C.735 50.57-.43 48.334.148 46.3c.663-2.336 2.726-3.447 5.606-2.989L26.16 7.604c-2.06-2.04-2.067-4.666 0-6.526 1.686-1.518 4.092-1.415 5.735.193 1.792 1.755 1.746 3.977-.172 6.264 7.015 11.784 14.04 23.586 21.059 35.374"/>
</svg>
