<svg xmlns="http://www.w3.org/2000/svg" width="53" height="61" viewBox="0 0 53 61">
    <g fill="#59626E" fill-rule="evenodd">
        <path d="M3.112 34.518c-1.421.507-1.604.96-.995 2.18.649 1.298 1.287 2.602 1.936 3.901.657 1.318 1.265 1.43 2.372.437l-3.313-6.518m41.895-12.87c.883-.54 1.52-1.115 1.516-2.18-.008-1.67-.917-2.964-1.88-4.156-.698-.868-2.075-.862-2.973-.259 1.094 2.164 2.19 4.331 3.337 6.595M18.185 41.36l-4.323 1.867c.219.398.402.721.578 1.05.174.323.34.651.514.986.29-.144.546-.267.799-.394.252-.126.492-.29.757-.375.51-.163 1.027-.274 1.332.373.24.512.067 1.017-.502 1.328-.39.213-.808.382-1.182.62-.121.076-.24.347-.194.462.182.45.43.871.668 1.331.535-.268.994-.506 1.459-.73.61-.296 1.197-.184 1.446.263.269.485.047 1.054-.567 1.393-.49.271-.993.517-1.498.78.203.421.399.798.565 1.187.17.4.41.448.772.241.366-.21.747-.399 1.132-.575.555-.253 1.013-.092 1.312.418.248.423-.008 1-.532 1.282-.51.275-1.025.537-1.564.82l.827 1.616c.54-.267 1.022-.51 1.508-.74.632-.302 1.14-.188 1.407.303.272.501.059 1.048-.554 1.377-.472.254-.956.488-1.424.727.81 2.566 3.095 2.185 4.2.913.79-.908.49-1.877.016-2.816-1.917-3.783-3.838-7.563-5.757-11.345-.391-.77-.78-1.543-1.195-2.362m-3.311-16.832C11.42 26.564 8.042 28.55 4.67 30.55c-.755.448-.93.921-.538 1.705 1.58 3.171 3.18 6.333 4.803 9.483.41.798 1.09 1 1.934.676.636-.244 1.26-.517 1.886-.788 2.042-.884 4.08-1.776 6.122-2.66.89-.386 1.786-.76 2.735-1.165l-6.738-13.273m30.352 14.316c.62 0 1.188.032 1.752-.006 2.225-.147 3.36-2.167 2.555-3.853-1.985-4.15-4.154-8.214-6.238-12.318-2.03-3.997-4.05-8-6.064-12.005a1374.005 1374.005 0 0 1-3.585-7.188c-.628-1.267-2.122-2.226-3.666-1.577-1.032.434-1.594 1.321-2.125 2.224-.08.134-.004.41.08.58.31.632.663 1.244.983 1.871 1.94 3.81 3.88 7.62 5.81 11.434 2.027 4.003 4.043 8.011 6.06 12.018 1.49 2.956 2.976 5.913 4.438 8.82M26.502 5.985c-1.871 2.664-3.673 5.224-5.47 7.788-1.428 2.041-2.823 4.105-4.282 6.124-.781 1.08-.943 2.127-.323 3.343 2.41 4.724 4.782 9.466 7.175 14.2.513 1.013 1.359 1.532 2.492 1.532 2.756 0 5.512-.02 8.268-.03 2.03-.008 4.063-.016 6.094-.02.866-.004 1.73-.002 2.702-.002L26.502 5.985m19.365 17.422c.912 1.787 1.835 3.57 2.736 5.364.91 1.815 1.907 3.597 2.674 5.472 1.25 3.054-1.48 6.601-4.65 6.524-2.516-.06-5.037.043-7.555.053-4.355.016-8.71.035-13.063.008-1.115-.007-2.133-.447-2.998-1.16-.271-.225-.468-.284-.791-.122-.732.367-1.484.691-2.287 1.06.966 1.931 1.897 3.81 2.842 5.68 1.366 2.706 2.754 5.401 4.11 8.112.903 1.804.514 3.88-.941 5.246-1.2 1.128-3.28 1.327-4.725.495-.888-.51-1.512-1.222-1.97-2.133-2.258-4.507-4.536-9.005-6.811-13.505-.083-.165-.19-.318-.217-.363-.84.05-1.59.131-2.338.128-.877-.002-1.583-.448-2.146-1.076-.275-.306-.493-.375-.828-.158-1.503.973-3.733.158-4.501-1.493a85.367 85.367 0 0 0-2.082-4.174c-.665-1.248-.357-3.465 1.346-4.23.47-.213.596-.467.525-1.015-.182-1.386.376-2.519 1.574-3.233a638.99 638.99 0 0 1 9.332-5.445c.714-.41 1.172-.784 1.126-1.764-.055-1.146.469-2.179 1.193-3.134 1.1-1.452 2.052-3.017 3.098-4.512 1.773-2.532 3.58-5.04 5.356-7.572 1.048-1.495 2.07-3.008 3.094-4.52C28.098.273 30.93-.48 32.805.323c1.303.56 2.18 1.475 2.799 2.726 1.594 3.225 3.23 6.43 4.825 9.653.223.45.423.531.915.387 2.354-.689 4.679.337 5.773 2.533.497.997 1.165 1.925 1.196 3.12.05 1.908-.684 3.4-2.244 4.49-.055.04-.103.09-.202.175M52.646 18.618c0 .584.048 1.173-.013 1.75-.064.613-.683 1.111-1.157.96-.588-.189-.799-.609-.718-1.25.495-3.924-1.13-6.795-4.434-8.813-.663-.406-.84-.862-.526-1.378.29-.478.85-.573 1.454-.212 3.388 2.022 5.415 4.88 5.394 8.943"/>
    </g>
</svg>
