<svg xmlns="http://www.w3.org/2000/svg" width="53" height="53" viewBox="0 0 53 53">
    <g fill="#59626E" fill-rule="evenodd">
        <path d="M2.182 26.194c.004 13.28 10.773 24.051 24.054 24.06 13.154.007 24.052-10.9 24.037-24.062-.015-13.308-10.802-24.043-24.145-24.03-13.194.014-23.95 10.808-23.946 24.032M0 26.175C.044 11.705 11.811-.043 26.221 0 40.692.042 52.482 11.824 52.43 26.19c-.053 14.571-11.803 26.304-26.277 26.24C11.682 52.363-.044 40.592 0 26.174"/>
        <path d="M37.582 37.688a1.24 1.24 0 0 0-1.288 1.227 1.251 1.251 0 0 0 1.19 1.27 1.279 1.279 0 0 0 1.327-1.202c.033-.681-.53-1.276-1.229-1.294m1.311-1.995c1.914-2.623 2.913-5.51 3.051-8.697.005-.123.001-.247.004-.372.014-.811.437-1.337 1.073-1.331.675.003 1.104.535 1.092 1.377-.048 3.418-1.015 6.557-2.868 9.428-.068.104-.124.22-.207.309-.433.462-.468.904-.245 1.542.477 1.362.05 2.586-1.02 3.528-1.137 1-2.459 1.148-3.82.535-.412-.184-.68-.183-1.065.029-10.668 5.88-23.842-.178-26.27-12.113-.977-4.805-.056-9.29 2.64-13.397.507-.774 1.116-.99 1.696-.63.616.383.674 1.046.161 1.838-4.853 7.5-2.783 17.296 4.752 21.97 5.13 3.184 10.462 3.245 15.84.536.231-.117.504-.19.39-.579-.66-2.24 1.553-4.925 4.518-4.06.078.023.155.049.278.087"/>
        <path d="M26.182 36.13c-6.851-.037-11.514-6.896-8.981-13.243.134-.335.482-.721.809-.819.9-.265 1.527.53 1.192 1.479-.568 1.604-.702 3.224-.256 4.875.923 3.41 4.033 5.672 7.609 5.543 3.447-.125 6.347-2.61 7.016-6.03.09-.465.106-.945.138-1.42.049-.755.476-1.227 1.123-1.22.692.007 1.144.544 1.108 1.362-.141 3.145-1.434 5.7-3.962 7.592-1.713 1.282-3.66 1.883-5.796 1.88"/>
        <path d="M27.451 26.659c-.295.343-.503.756-.834.925-.435.223-.903.09-1.29-.304-1.945-1.976-3.907-3.934-5.863-5.9l-7.269-7.301c-.088-.088-.177-.174-.262-.265-.524-.56-.564-1.193-.107-1.65.454-.454 1.108-.425 1.647.11 1.776 1.764 3.54 3.54 5.313 5.308 2.696 2.687 5.4 5.366 8.084 8.065.23.23.34.58.581 1.012"/>
    </g>
</svg>
