<svg xmlns="http://www.w3.org/2000/svg" width="18" height="24" viewBox="0 0 18 24">
    <path fill="#FFF" fill-rule="nonzero" d="M16.636 11.926c-.802-.583-1.945-.816-1.945-.816s.967-.54 1.363-1.08c.395-.54.593-1.377.626-1.811.033-.435.11-2.256-1.363-3.305-1.139-.811-2.444-1.133-4.197-1.238V0H8.77v3.633H6.977V0h-2.35v3.633H0v2.353h1.36c.37 0 1.03.04 1.31.342.28.302.33.461.33 1.049v9.378c0 .223-.044.498-.242.678-.198.18-.395.222-.868.222H.483L0 20.378h4.626V24h2.352v-3.622h1.79V24h2.352v-3.682a25.207 25.207 0 0 0 1.505-.12c.67-.085 2.187-.254 3.605-1.208 1.417-.953 1.736-2.447 1.769-3.95.033-1.504-.561-2.532-1.363-3.114zM7.412 6.312s.733-.06 1.455-.05c.723.01 1.358.03 2.307.299.949.268 1.509.925 1.531 1.701.021.777-.345 1.294-.992 1.622-.647.329-1.541.508-2.382.537-.841.03-1.92 0-1.92 0v-4.11zm5.184 10.72c-.53.305-1.591.576-2.62.655-1.027.079-2.564.045-2.564.045v-5.175s1.472-.079 2.619 0c1.147.079 2.11.383 2.543.609.433.225 1.19.721 1.19 1.905 0 1.184-.638 1.658-1.168 1.962z"/>
</svg>
