<svg xmlns="http://www.w3.org/2000/svg" width="34" height="24" viewBox="0 0 34 24">
    <path fill="#FFF" fill-rule="nonzero" d="M14.956 20.009a.974.974 0 0 1 0 1.948.974.974 0 0 1 0-1.948m15.265-6.035a.974.974 0 0 1 0-1.949.974.974 0 0 1 0 1.949m0-3.991A3.017 3.017 0 0 0 27.21 13c0 .324.053.646.16.96l-9.944 5.305a2.996 2.996 0 0 0-2.47-1.3 3.013 3.013 0 0 0-2.7 1.687l-8.933-4.72c-.944-.498-1.65-2.056-1.575-3.474.038-.74.294-1.314.682-1.536.246-.14.543-.128.857.038l.06.03c2.367 1.25 10.113 5.34 10.44 5.493.503.233.783.328 1.64-.08l16.013-8.348c.235-.089.509-.314.509-.656 0-.475-.49-.662-.491-.662-.91-.438-2.311-1.095-3.676-1.736-2.919-1.37-6.227-2.922-7.68-3.685-1.254-.658-2.263-.103-2.443.01l-.35.173C10.772 3.739 2.022 8.083 1.524 8.387.632 8.931.079 10.015.008 11.361c-.112 2.133.974 4.356 2.526 5.172l9.446 4.883A3.014 3.014 0 0 0 14.956 24a3.017 3.017 0 0 0 3.01-2.971l10.403-5.652c.528.413 1.182.64 1.852.64a3.017 3.017 0 0 0 0-6.034"/>
</svg>
