<svg xmlns="http://www.w3.org/2000/svg" width="28" height="24" viewBox="0 0 28 24">
    <path fill="#FFF" fill-rule="nonzero" d="M9.328 4.48v18.57c0 .264-.065.488-.195.673-.13.185-.32.277-.57.277-.178 0-.35-.042-.516-.127L.78 20.185a1.336 1.336 0 0 1-.554-.53A1.408 1.408 0 0 1 0 18.917V.871A.91.91 0 0 1 .156.332.52.52 0 0 1 .61.111c.146 0 .375.079.688.237L9.28 4.401c.031.032.047.058.047.08zm1 1.6l8.344 13.709-8.344-4.211V6.079zM28 6.363V23.05c0 .264-.073.478-.219.641-.146.164-.343.246-.593.246-.25 0-.495-.069-.735-.206l-6.89-3.483L28 6.364zm-.047-1.9c0 .032-1.336 2.246-4.008 6.642a5691.25 5691.25 0 0 1-4.695 7.717L13.156 8.786 18.22.443c.177-.295.448-.443.812-.443.146 0 .282.032.407.095l8.453 4.274c.041.022.062.053.062.095z"/>
</svg>
