<svg xmlns="http://www.w3.org/2000/svg" width="27" height="23" viewBox="0 0 27 23">
    <path fill="#FFF" fill-rule="nonzero" d="M26.893 11.2c0-1.659-1.33-3.006-2.965-3.006-.778 0-1.479.3-2.012.796-1.94-1.365-4.558-2.264-7.481-2.431l1.312-4.385 4.019.809c.137 1.36 1.27 2.42 2.653 2.42h.024c1.473 0 2.665-1.21 2.665-2.702C25.108 1.21 23.91 0 22.437 0H22.419c-1.03 0-1.917.587-2.366 1.455L14.68.377l-1.844 6.17-.15.006c-3.013.131-5.72 1.042-7.709 2.437a2.918 2.918 0 0 0-2.012-.796C1.33 8.194 0 9.54 0 11.2c0 1.173.659 2.186 1.623 2.683a5.474 5.474 0 0 0-.072.886C1.557 19.31 6.882 23 13.447 23c6.564 0 11.889-3.69 11.889-8.236 0-.3-.024-.593-.066-.886a3.006 3.006 0 0 0 1.623-2.677zM2.054 12.405a1.5 1.5 0 0 1-.652-1.245c0-.827.664-1.504 1.479-1.504.335 0 .647.114.898.306-.808.712-1.407 1.539-1.725 2.443zm19.377-9.703a1 1 0 0 1 .988-1.006c.545 0 .988.45.988 1.006a1 1 0 0 1-.988 1.007.997.997 0 0 1-.988-1.007zM7.607 13.441c0-1.055.85-1.905 1.904-1.905 1.055 0 1.905.85 1.905 1.905 0 1.054-.85 1.904-1.905 1.904a1.902 1.902 0 0 1-1.904-1.904zm5.84 6.684c-2.851-.012-4.552-1.707-4.624-1.779l.754-.743c.012.012 1.42 1.45 3.87 1.462 2.413-.012 3.845-1.45 3.863-1.462l.755.743c-.072.072-1.767 1.767-4.618 1.779zm3.97-4.78a1.902 1.902 0 0 1-1.904-1.904c0-1.055.85-1.905 1.905-1.905a1.906 1.906 0 0 1 0 3.81zm7.434-2.917c-.324-.916-.935-1.76-1.755-2.48.251-.197.569-.31.91-.31.833 0 1.504.682 1.504 1.527.006.527-.258.988-.66 1.263z"/>
</svg>
