<svg xmlns="http://www.w3.org/2000/svg" width="24" height="24" viewBox="0 0 24 24">
    <path fill="#FFF" fill-rule="evenodd" d="M21.191 10.826c1.144 0 2.023.837 2.023 1.98 0 .894-.46 1.522-1.297 1.815l-2.4.823.782 2.33c.07.209.097.432.097.655 0 1.102-.893 2.023-1.995 2.023-.879 0-1.66-.544-1.939-1.381l-.767-2.302-4.325 1.479.767 2.288c.07.209.112.432.112.655 0 1.089-.893 2.023-2.009 2.023a2.01 2.01 0 0 1-1.925-1.38l-.768-2.275-2.134.74a2.37 2.37 0 0 1-.698.125c-1.13 0-1.98-.837-1.98-1.967 0-.865.557-1.646 1.38-1.925l2.177-.74-1.465-4.366-2.176.753c-.224.07-.447.112-.67.112C.865 12.29 0 11.44 0 10.324c0-.865.558-1.647 1.381-1.926l2.19-.739-.739-2.218a2.021 2.021 0 0 1 1.897-2.679 2.01 2.01 0 0 1 1.926 1.381l.753 2.233 4.325-1.465-.754-2.232a2.087 2.087 0 0 1-.111-.656C10.868.92 11.775 0 12.877 0c.879 0 1.66.558 1.939 1.381l.74 2.246 2.26-.767c.195-.056.39-.084.6-.084 1.087 0 2.022.81 2.022 1.925 0 .865-.67 1.59-1.45 1.856l-2.191.753 1.465 4.409 2.288-.781c.209-.07.432-.112.641-.112zM10.114 14.48l4.325-1.465-1.465-4.394-4.324 1.492 1.464 4.367z"/>
</svg>
