<svg xmlns="http://www.w3.org/2000/svg" width="26" height="23" viewBox="0 0 26 23">
    <path fill="#FFF" fill-rule="nonzero" d="M.46 10.909l5.99 2.247L8.77 20.65a.704.704 0 0 0 1.12.34l3.34-2.737a.992.992 0 0 1 1.214-.034l6.023 4.395a.705.705 0 0 0 1.106-.43L25.985.856a.707.707 0 0 0-.946-.806L.452 9.58c-.607.235-.601 1.098.007 1.328zm7.935 1.05l11.709-7.247c.21-.13.427.156.246.325l-9.663 9.027c-.34.317-.559.743-.62 1.204l-.33 2.452c-.043.327-.5.36-.59.043l-1.267-4.47a1.187 1.187 0 0 1 .515-1.334z"/>
</svg>
