<svg xmlns="http://www.w3.org/2000/svg" width="22" height="18" viewBox="0 0 22 18">
    <path fill="#FFF" fill-rule="evenodd" d="M21.987 2.12c-.81.35-1.688.6-2.595.698a4.494 4.494 0 0 0 1.98-2.483 8.87 8.87 0 0 1-2.86 1.088A4.495 4.495 0 0 0 15.22 0a4.504 4.504 0 0 0-4.506 4.506c0 .349.042.698.112 1.033A12.808 12.808 0 0 1 1.535.823 4.472 4.472 0 0 0 .92 3.097c0 1.563.795 2.944 2.009 3.753a4.539 4.539 0 0 1-2.037-.572v.056a4.507 4.507 0 0 0 3.613 4.422 4.766 4.766 0 0 1-1.186.154c-.293 0-.572-.028-.85-.07a4.514 4.514 0 0 0 4.212 3.125 9.025 9.025 0 0 1-5.594 1.925c-.377 0-.725-.014-1.088-.056a12.733 12.733 0 0 0 6.92 2.023c8.286 0 12.82-6.864 12.82-12.82 0-.196 0-.391-.013-.587a9.686 9.686 0 0 0 2.26-2.33z"/>
</svg>
