<?xml version="1.0" encoding="UTF-8" standalone="no"?>
<svg width="1170px" height="948px" viewBox="0 0 1170 948" version="1.1" xmlns="http://www.w3.org/2000/svg" xmlns:xlink="http://www.w3.org/1999/xlink">
    <!-- Generator: Sketch 43.1 (39012) - http://www.bohemiancoding.com/sketch -->
    <title>Group 16</title>
    <desc>Created with Sketch.</desc>
    <defs>
        <path d="M355.5,829.5 C355.5,698.608514 249.391486,592.5 118.5,592.5 C-12.3914857,592.5 -118.5,698.608514 -118.5,829.5" id="path-1"></path>
        <mask id="mask-2" maskContentUnits="userSpaceOnUse" maskUnits="objectBoundingBox" x="0" y="0" width="474" height="237" fill="white">
            <use xlink:href="#path-1"></use>
        </mask>
        <path d="M1288.5,356.5 C1288.5,225.608514 1182.39149,119.5 1051.5,119.5 C920.608514,119.5 814.5,225.608514 814.5,356.5" id="path-3"></path>
        <mask id="mask-4" maskContentUnits="userSpaceOnUse" maskUnits="objectBoundingBox" x="0" y="0" width="474" height="237" fill="white">
            <use xlink:href="#path-3"></use>
        </mask>
    </defs>
    <g id="Landing-Investor" stroke="none" stroke-width="1" fill="none" fill-rule="evenodd" stroke-dasharray="6">
        <g id="Baner-Landing-ICO-Elements" transform="translate(-383.000000, -1269.000000)" stroke="#414955">
            <g id="Group-16" transform="translate(383.000000, 1268.000000)">
                <path d="M86.5,1.5 L590.5,1.5" id="Line" stroke-linecap="square"></path>
                <path d="M291.5,474.5 L778.5,474.5" id="Line-Copy" stroke-linecap="square"></path>
                <path d="M832.5,474.5 L934.080107,474.5" id="Line-Copy-3" stroke-linecap="square"></path>
                <path d="M291.498988,948.5 L778.5,948.5" id="Line-Copy-2" stroke-linecap="square"></path>
                <path d="M648.5,1.5 L929.50692,1.5" id="Line-Copy-5" stroke-linecap="square"></path>
                <use id="Oval-3" mask="url(#mask-2)" stroke-width="2" transform="translate(118.500000, 711.000000) rotate(-90.000000) translate(-118.500000, -711.000000) " xlink:href="#path-1"></use>
                <use id="Oval-3-Copy" mask="url(#mask-4)" stroke-width="2" transform="translate(1051.500000, 238.000000) scale(-1, 1) rotate(-90.000000) translate(-1051.500000, -238.000000) " xlink:href="#path-3"></use>
            </g>
        </g>
    </g>
</svg>