<svg xmlns="http://www.w3.org/2000/svg" width="384" height="384" viewBox="0 0 384 384">
    <g fill="none" fill-rule="evenodd">
        <path fill="#FDEC46" d="M174.914 15.816c-.225-5.115-1.167-9.891-2.026-14.868-41.786 4.132-79.632 21.656-109.19 48.225 3.354 3.908 6.535 7.535 10.117 11.067 28.28-25.43 63.433-40.838 101.099-44.424"/>
        <path fill="#7FDCBF" d="M192 0c-6.451 0-12.825.326-19.112.948.697 5.829.697 5.829 2.026 14.868A180.028 180.028 0 0 1 192 15c1.663 0 3.322.029 4.978.074-.003-5.005-.028-10.009-.247-15.014C195.158.022 193.582 0 192 0"/>
        <path fill="#B3A3D0" d="M196.731.06c.22 5.005.244 10.01.247 15.014 45.413 1.246 87.925 19.513 120.18 51.768C350.59 100.272 369 144.722 369 192c0 47.279-18.41 91.727-51.842 125.158C283.728 350.588 239.278 369 192 369c-47.279 0-91.727-18.411-125.158-51.842C33.412 283.727 15 239.278 15 192c0-47.278 18.411-91.727 51.842-125.158 2.273-2.272 4.6-4.47 6.972-6.602-3.582-3.532-6.762-7.16-10.116-11.067C24.598 84.32 0 135.285 0 192c0 106.039 85.961 192 192 192 106.038 0 192-85.961 192-192C384 87.543 300.583 2.572 196.731.06"/>
    </g>
</svg>
