<svg xmlns="http://www.w3.org/2000/svg" xmlns:xlink="http://www.w3.org/1999/xlink" width="60" height="60" viewBox="0 0 60 60">
    <defs>
        <ellipse id="a" cx="30" cy="30" rx="30" ry="30"/>
    </defs>
    <g fill="none" fill-rule="evenodd">
        <g>
            <use fill="#768193" xlink:href="#a"/>
            <ellipse cx="30" cy="30" stroke="#616A7A" stroke-width="4" rx="28" ry="28"/>
        </g>
        <path fill="#606A7A" d="M38.84 23c.231 2.375-.769 3.804-2.34 4.607 2.607.625 4.25 2.179 3.929 5.66-.411 4.34-3.625 5.5-8.233 5.75v4.554h-2.75V39.09c-.696 0-1.428 0-2.178-.018v4.5h-2.75v-4.553c-.643 0-1.286-.018-1.947-.018H19l.554-3.268c2.017.036 1.982 0 1.982 0 .768 0 .982-.553 1.035-.91v-7.18h.286c-.107-.017-.214-.017-.286-.017V22.5c-.107-.571-.464-1.214-1.589-1.214 0 0 .036-.036-1.982 0v-2.929l3.786.018c.553 0 1.143 0 1.732-.018v-4.5h2.75v4.41c.732-.017 1.464-.035 2.178-.035v-4.375h2.75v4.5c3.536.304 6.34 1.393 6.643 4.643zM35 32.732c0-3.536-5.821-3.018-7.679-3.018v6.036c1.858 0 7.679.393 7.679-3.018zm-1.268-8.5c0-3.232-4.857-2.75-6.41-2.75v5.482c1.553 0 6.41.357 6.41-2.732z"/>
    </g>
</svg>
