<svg xmlns="http://www.w3.org/2000/svg" xmlns:xlink="http://www.w3.org/1999/xlink" width="60" height="60" viewBox="0 0 60 60">
    <defs>
        <ellipse id="a" cx="30" cy="30" rx="30" ry="30"/>
    </defs>
    <g fill="none" fill-rule="evenodd">
        <g>
            <use fill="#768193" xlink:href="#a"/>
            <ellipse cx="30" cy="30" stroke="#616A7A" stroke-width="4" rx="28" ry="28"/>
        </g>
        <path fill="#606A7A" d="M38.464 35.732c0-4.303-3.714-5.75-7-7.018-2.535-.982-4.714-1.821-4.714-3.714 0-1.625 1.571-2.75 3.84-2.75 2.678 0 4.839 1.91 4.856 1.929a.59.59 0 0 0 .483.125.527.527 0 0 0 .41-.286l1.447-2.607a.571.571 0 0 0-.09-.679c-.071-.071-2-2.036-5.625-2.446v-3.143a.564.564 0 0 0-.571-.572h-2.41a.575.575 0 0 0-.572.572v3.214c-3.732.714-6.304 3.429-6.304 6.714 0 4.483 4 6.09 7.215 7.358 2.41.964 4.517 1.803 4.517 3.517 0 2.018-1.892 2.947-3.642 2.947-3.161 0-5.661-2.393-5.697-2.41a.486.486 0 0 0-.428-.162c-.161.018-.322.09-.411.215l-1.84 2.41a.592.592 0 0 0 .036.733c.09.107 2.375 2.607 6.554 3.196V46c0 .321.268.571.571.571H31.5c.321 0 .571-.25.571-.571v-3.125c3.786-.625 6.393-3.5 6.393-7.143z"/>
    </g>
</svg>
