<svg xmlns="http://www.w3.org/2000/svg" xmlns:xlink="http://www.w3.org/1999/xlink" width="45" height="53" viewBox="0 0 45 53">
    <defs>
        <path id="a" d="M0 53h44.218V.358H0z"/>
    </defs>
    <g fill="none" fill-rule="evenodd">
        <g transform="translate(0 -.358)">
            <mask id="b" fill="#fff">
                <use xlink:href="#a"/>
            </mask>
            <path fill="#59626E" d="M29.422 4.14v.388c.017 3.083.033 6.166.054 9.25.006.988.336 1.311 1.338 1.312 3.049.003 6.098.002 9.147 0 .147 0 .293-.015.406-.022L29.422 4.14zm-2.094-1.639c-.21-.014-.361-.033-.511-.033-7.794-.002-15.588-.003-23.382-.002-.963.001-1.333.374-1.333 1.341 0 15.23 0 30.458.002 45.687 0 1.066.341 1.4 1.425 1.4 12.385.001 24.771.001 37.156 0 1.079 0 1.425-.34 1.425-1.402.001-10.569 0-21.139-.002-31.708 0-.18-.015-.36-.025-.57H30.775c-2.099-.002-3.416-1.332-3.42-3.445-.007-3.546-.018-7.092-.027-10.638v-.63zM.002 26.63L.003 3.81C.003 1.648 1.29.364 3.457.364c7.931 0 15.863.006 23.795-.007 1.06 0 1.917.363 2.661 1.11 4.389 4.405 8.786 8.802 13.19 13.193.745.743 1.116 1.597 1.115 2.658-.011 10.81-.005 21.62-.009 32.43 0 1.883-1.359 3.25-3.237 3.25-12.574.003-25.149.003-37.723 0C1.343 52.995.002 51.63.002 49.704-.001 42.013 0 34.321 0 26.63h.002z" mask="url(#b)"/>
        </g>
        <path fill="#59626E" d="M21.062 35.419v-.685V19.22c0-.721.322-1.158.898-1.23.69-.084 1.186.383 1.188 1.142.006 2.055.003 4.11.003 6.165V35.39c.201-.18.334-.29.456-.411 1.321-1.318 2.644-2.635 3.957-3.961.363-.366.774-.51 1.256-.325.71.272.875 1.155.312 1.735-.845.873-1.715 1.723-2.574 2.583-1.187 1.187-2.372 2.375-3.56 3.559-.616.612-1.165.617-1.772.01a4285.174 4285.174 0 0 1-6.03-6.03c-.55-.551-.593-1.166-.13-1.624.452-.448 1.08-.397 1.626.147 1.287 1.28 2.568 2.566 3.852 3.849.132.13.27.258.518.496M14.929 43.527h14.355a1.053 1.053 0 0 0 0-2.105H14.929a1.053 1.053 0 0 0 0 2.105"/>
    </g>
</svg>
