<svg xmlns="http://www.w3.org/2000/svg" width="196" height="51" viewBox="0 0 196 51">
    <g fill="#FFF" fill-rule="evenodd">
        <path d="M0 51V0h15.865c2.564 0 4.86.28 6.893.841 2.034.56 3.753 1.419 5.165 2.574 1.41 1.155 2.486 2.609 3.226 4.36.74 1.752 1.109 3.82 1.109 6.2 0 1.168-.12 2.289-.37 3.361a11.165 11.165 0 0 1-1.165 3.013 10.598 10.598 0 0 1-2.01 2.54c-.811.758-1.778 1.384-2.909 1.874 1.318.375 2.433.94 3.349 1.698a9.376 9.376 0 0 1 2.224 2.646 12.003 12.003 0 0 1 1.235 3.274c.257 1.179.388 2.387.388 3.625 0 4.951-1.372 8.688-4.107 11.209-2.738 2.523-6.705 3.782-11.897 3.782H0V51zm10.365-29.668h5.396c2.065 0 3.6-.533 4.6-1.595.999-1.062 1.502-2.622 1.502-4.677 0-2.313-.471-3.971-1.411-4.974-.94-1.004-2.468-1.507-4.584-1.507h-5.5v12.753h-.003zm0 7.493V42.45h6.63c1.01 0 1.873-.162 2.591-.49a4.59 4.59 0 0 0 1.763-1.384 5.835 5.835 0 0 0 1.005-2.084c.211-.796.316-1.669.316-2.627 0-2.172-.405-3.886-1.217-5.148-.811-1.262-2.178-1.892-4.106-1.892h-6.982zM64.401 40.563H50.494L47.786 51H37L52.779 0h9.334L78 51H67.106L64.4 40.563zm-11.69-8.582h9.434l-4.719-18.18-4.716 18.18zM118 51h-10.109L93.11 17.551V51H83V.003h10.109l14.819 33.486V0H118zM153.085 28.931h-15.887v13.522H156V51h-29V0h28.929v8.582H137.2v12.05h15.886v8.3zM177.344 32.365h-5.091V51H162V0h16.356c2.533 0 4.797.333 6.784.998 1.988.666 3.673 1.648 5.056 2.941 1.384 1.294 2.441 2.902 3.173 4.818.73 1.917 1.1 4.134 1.1 6.655 0 1.844-.17 3.508-.507 4.99-.336 1.483-.827 2.804-1.465 3.959a12.493 12.493 0 0 1-2.32 3.029 14.864 14.864 0 0 1-3.068 2.241L196 50.508v.49h-11.019l-7.637-18.633zm-5.091-8.585h5.822c2.043 0 3.583-.68 4.603-2.05 1.02-1.367 1.535-3.193 1.535-5.482 0-1.166-.112-2.223-.332-3.17-.222-.946-.57-1.752-1.046-2.418a4.796 4.796 0 0 0-1.832-1.54c-.744-.363-1.627-.544-2.65-.544h-6.103V23.78h.003z"/>
    </g>
</svg>
